<?xml version="1.0" encoding="iso-8859-1"?>
<!-- Generator: Adobe Illustrator 18.1.1, SVG Export Plug-In . SVG Version: 6.00 Build 0)  -->
<svg version="1.1" id="Capa_1" xmlns="http://www.w3.org/2000/svg" xmlns:xlink="http://www.w3.org/1999/xlink" x="0px" y="0px"
	 viewBox="0 0 491.667 491.667" style="fill:teal;enable-background:new 0 0 491.667 491.667;" xml:space="preserve">
<g>
	<g>
		<path d="M193.908,83c-10,0-18.667,3.5-26,10.5s-11,15.5-11,25.5s3.667,18.5,11,25.5s16,10.5,26,10.5
			c10,0,18.5-3.5,25.5-10.5s10.5-15.5,10.5-25.5s-3.5-18.5-10.5-25.5S203.908,83,193.908,83z"/>
		<path d="M378.909,154c-0.674-3.333-3.34-7.333-8-12l-214-142l-20,29c-4.667,6.667-3.667,12.334,3,17
			c6.667,4.667,12.333,3.667,17-3l12-17l174,115l-143,26c-4.667,0.667-8.667,3.167-12,7.5s-4.333,8.833-3,13.5l31,121l-100,150
			c-3.333,5.334-4.167,11-2.5,17s5.167,10.334,10.5,13c5.333,2.666,10.833,3.334,16.5,2s10.167-4.666,13.5-10
			c69.333-105.332,104.333-158.332,105-159l5,22l-16,119c-0.666,5.334,0.668,10.5,4,15.5s8,8,14,9s11.5-0.334,16.5-4
			s7.832-8.166,8.5-13.5l16-122c0.666-4,0.666-8.332,0-13l-36-143l93-16c4.666-1.333,8.5-4,11.5-8S379.575,159.333,378.909,154z"/>
	</g>
</g>
<g>
</g>
<g>
</g>
<g>
</g>
<g>
</g>
<g>
</g>
<g>
</g>
<g>
</g>
<g>
</g>
<g>
</g>
<g>
</g>
<g>
</g>
<g>
</g>
<g>
</g>
<g>
</g>
<g>
</g>
</svg>
